<?xml version="1.0" encoding="UTF-8" standalone="no"?>
<svg
   xmlns:dc="http://purl.org/dc/elements/1.1/"
   xmlns:cc="http://creativecommons.org/ns#"
   xmlns:rdf="http://www.w3.org/1999/02/22-rdf-syntax-ns#"
   xmlns:svg="http://www.w3.org/2000/svg"
   xmlns="http://www.w3.org/2000/svg"
   style="fill:none"
   version="1.1"
   id="svg2"
   viewBox="0 0 280 90"
   height="90"
   width="280">
  <metadata
     id="metadata39">
    <rdf:RDF>
      <cc:Work
         rdf:about="">
        <dc:format>image/svg+xml</dc:format>
        <dc:type
           rdf:resource="http://purl.org/dc/dcmitype/StillImage" />
        <dc:title></dc:title>
      </cc:Work>
    </rdf:RDF>
  </metadata>
  <g
     transform="translate(0,5.53845)"
     id="g4"
     clip-path="url(#clip0)">
    <path
       style="fill:#f6f6f7"
       id="path6"
       d="M 26.6036,16.949 22.0138,5.08095 C 20.8239,4.49999 19.5489,4.08503 18.359,3.75305 l 6.2047,12.78105 c 0.6799,0.083 1.2749,0.2489 2.0399,0.4149 z" />
    <path
       style="fill:#fcfcfd"
       id="path8"
       d="m 32.6382,20.1858 -0.34,-8.6314 C 31.1933,10.6415 30.0034,9.81156 28.8984,8.98163 l 1.6999,9.87627 c 0.68,0.4149 1.36,0.8299 2.0399,1.3279 z" />
    <path
       style="fill:#eae9e9"
       id="path10"
       d="M 21.0788,16.7 11.5594,2.9231 C 10.3694,3.00609 9.34949,3.25507 8.32954,3.67004 L 19.4639,17.447 c 0.51,-0.332 1.02,-0.581 1.6149,-0.747 z" />
    <path
       style="fill:#d2cfce"
       id="path12"
       d="M 19.209,36.9504 5.26971,39.5232 c 1.10494,2.3239 2.37987,4.7307 3.82479,7.0545 L 21.1638,40.5192 C 20.4839,39.2743 19.8039,38.1124 19.209,36.9504 Z" />
    <path
       style="fill:#d2cfce"
       id="path14"
       d="M 17.1691,20.0197 3.05985,7.4877 C 2.29489,8.48362 1.69992,9.64553 1.27495,10.9734 L 16.4891,22.1776 c 0.17,-0.83 0.34,-1.4939 0.68,-2.1579 z" />
    <path
       style="fill:#d2cfce"
       id="path16"
       d="M 16.2341,27.1572 0,20.2687 c 0.0849954,1.9089 0.339981,3.9837 0.764958,6.1415 L 16.7441,30.3939 c -0.17,-1.1619 -0.425,-2.1578 -0.51,-3.2367 z" />
    <path
       style="fill:#f6f6f7"
       id="path18"
       d="m 49.5523,50.4785 9.5195,8.4653 c 0.085,1.3279 0,2.6558 -0.085,3.9007 L 49.2973,52.4703 c 0.085,-0.6639 0.255,-1.3279 0.255,-1.9918 z" />
    <path
       style="fill:#eae9e9"
       id="path20"
       d="m 47.8524,55.707 9.5195,13.777 c -0.51,1.0789 -1.105,1.9918 -1.8699,2.8217 L 46.5775,56.9519 C 47.0874,56.62 47.5124,56.205 47.8524,55.707 Z" />
    <path
       style="fill:#d2cfce"
       id="path22"
       d="M 28.3035,50.1464 20.9089,62.2635 C 19.124,60.3546 17.3391,58.3628 15.7242,56.2049 l 9.9444,-9.1293 c 0.935,1.1619 1.7849,2.1579 2.6349,3.0708 z" />
    <path
       style="fill:#d2cfce"
       id="path24"
       d="m 43.3476,58.1968 6.7147,17.6776 c -1.19,0.332 -2.5499,0.498 -3.9098,0.498 L 41.1378,58.1138 c 0.7649,0.083 1.5299,0.083 2.2098,0.083 z" />
    <path
       style="fill:#d2cfce"
       id="path26"
       d="m 36.378,56.4539 0.68,17.6776 C 35.2731,73.3846 33.4882,72.3887 31.6183,71.2268 L 33.5731,54.794 c 0.935,0.664 1.8699,1.2449 2.8049,1.6599 z" />
    <path
       style="fill:#4e4f4f"
       id="path28"
       d="m 263.826,41.6811 c 0.085,4.0667 3.144,6.2245 7.224,6.2245 3.145,0 6.97,-1.0789 6.97,-4.8136 0,-3.6517 -2.805,-4.4817 -6.29,-5.1456 -2.89,-0.581 -5.949,-1.079 -5.949,-3.8177 0,-2.4898 2.719,-3.3198 5.099,-3.3198 2.975,0 5.27,1.3279 5.27,4.3987 l 1.275,0 c 0,-3.9837 -2.805,-5.5606 -6.545,-5.5606 -2.975,0 -6.459,0.9959 -6.459,4.4817 0,3.5687 3.059,4.3156 6.119,4.9796 3.06,0.5809 6.12,1.0789 6.12,3.9837 0,2.9877 -3.315,3.6517 -5.61,3.6517 -3.23,0 -5.694,-1.8259 -5.864,-5.0626 l -1.36,0 z m -25.159,5.8095 1.275,0 0,-10.2912 c 0,-4.4816 3.145,-6.3905 5.61,-6.3905 1.105,0 4.164,0.415 4.164,4.8136 l 0,11.9511 1.275,0 0,-10.3742 c 0,-4.1497 2.38,-6.3905 5.61,-6.3905 1.02,0 4.25,0.332 4.25,4.8136 l 0,11.9511 1.275,0 0,-11.9511 c 0,-4.0666 -2.38,-5.8925 -5.61,-5.8925 -2.89,0 -4.59,1.3279 -5.61,3.6517 l -0.085,0 c -0.34,-1.8258 -1.955,-3.6517 -5.354,-3.6517 -2.635,0 -5.015,1.7429 -5.61,3.9837 l -0.085,0 0,-3.5687 -1.275,0 0,17.3456 0.17,0 z m -16.064,-9.7102 c 0.255,-3.4858 2.635,-7.0545 6.544,-7.0545 4.08,0 6.46,3.4028 6.545,7.0545 l -13.089,0 z m 14.364,1.1619 c 0.255,-4.9796 -2.295,-9.2953 -7.82,-9.2953 -5.354,0 -7.904,4.6476 -7.904,9.3783 -0.085,4.8136 2.635,8.7973 7.904,8.7973 4.25,0 6.97,-2.2408 7.735,-6.3075 l -1.275,0 c -0.595,3.2367 -2.975,5.1456 -6.375,5.1456 -4.419,0 -6.629,-3.7347 -6.544,-7.8014 l 14.279,0 0,0.083 z m -15.979,-8.8803 -3.91,0 0,-5.3946 -1.275,0 0,5.3946 -3.315,0 0,1.0789 3.315,0 0,12.117 c -0.17,3.9007 2.465,4.3157 5.185,4.1497 l 0,-1.0789 c -2.465,0.083 -3.825,-0.166 -3.825,-2.9878 l 0,-12.117 3.91,0 0,-1.1619 -0.085,0 z m -22.524,11.6191 c 0.085,4.0667 3.145,6.2245 7.225,6.2245 3.145,0 6.969,-1.0789 6.969,-4.8136 0,-3.6517 -2.804,-4.4817 -6.289,-5.1456 -2.89,-0.581 -5.95,-1.079 -5.95,-3.8177 0,-2.4898 2.72,-3.3198 5.1,-3.3198 2.975,0 5.269,1.3279 5.269,4.3987 l 1.275,0 c 0,-3.9837 -2.804,-5.5606 -6.544,-5.5606 -2.975,0 -6.46,0.9959 -6.46,4.4817 0,3.5687 3.06,4.3156 6.12,4.9796 3.06,0.5809 6.119,1.0789 6.119,3.9837 0,2.9877 -3.314,3.6517 -5.609,3.6517 -3.23,0 -5.695,-1.8259 -5.865,-5.0626 l -1.36,0 z m -7.989,5.6435 c -0.85,2.3239 -1.275,3.5688 -1.87,4.0667 -0.935,0.9129 -1.87,1.0789 -3.74,1.0789 l 0,1.079 c 2.04,0 3.23,-0.083 4.165,-0.747 0.765,-0.5809 1.36,-1.9088 2.04,-3.5687 l 7.649,-19.2545 -1.53,0 -5.949,15.9347 -6.63,-15.8517 -1.53,0 7.395,17.2626 z m -8.33,-17.0966 c -0.255,-5.3116 -4.335,-7.4695 -9.434,-7.4695 -3.91,0 -8.33,1.8259 -8.33,6.3905 0,4.5647 4.25,5.5606 8.415,6.3906 4.249,0.8299 8.499,1.5768 8.499,5.6435 0,4.2327 -4.165,5.4776 -7.14,5.4776 -4.929,0 -9.179,-1.9919 -8.924,-7.3034 l -1.53,0 c -0.085,6.2245 4.675,8.5483 10.454,8.5483 3.74,0 8.67,-1.8259 8.67,-6.8055 0,-4.8136 -4.25,-5.8925 -8.415,-6.7225 -4.164,-0.8299 -8.414,-1.4938 -8.414,-5.3945 0,-3.9837 3.995,-5.1456 6.8,-5.1456 4.589,0 7.734,2.0748 7.904,6.2245 l 1.445,0 0,0.166 z" />
    <path
       style="fill:#0f4a98"
       id="path30"
       d="m 162.511,35.7885 c -0.34,-4.3156 -3.91,-6.3075 -8.074,-6.3075 -5.865,0 -8.84,4.1497 -8.84,9.3783 0,5.1456 3.06,9.0463 8.67,9.0463 4.589,0 7.479,-2.4898 8.244,-7.0544 l -3.91,0 c -0.34,2.4898 -1.955,3.9836 -4.249,3.9836 -3.4,0 -4.76,-3.0707 -4.76,-5.9755 0,-5.3116 2.89,-6.3905 4.93,-6.3905 2.209,0 3.739,1.1619 4.079,3.3197 l 3.91,0 z m -22.184,-8.7973 3.91,0 0,-3.6517 -3.91,0 0,3.6517 z m 0,20.4994 3.91,0 0,-17.5116 -3.91,0 0,17.5116 z m -17.254,0 3.91,0 0,-10.3742 c 0,-2.5728 1.7,-4.5646 4.335,-4.5646 2.295,0 3.4,1.1619 3.485,3.9007 l 0,11.0381 3.909,0 0,-12.034 c 0,-3.9007 -2.464,-5.9756 -6.374,-5.9756 -2.38,0 -4.42,1.1619 -5.61,3.1538 l -0.085,-0.083 0,-2.5728 -3.74,0 0,17.5116 0.17,0 z m -10.624,0.415 c 5.78,0 9.009,-3.8177 9.009,-9.2123 0,-5.3116 -3.314,-9.2123 -9.009,-9.2123 -5.78,0 -9.01,3.8177 -9.01,9.2123 0,5.3946 3.315,9.2123 9.01,9.2123 z m 0,-2.9878 c -3.57,0 -5.1,-3.1537 -5.1,-6.2245 0,-2.9877 1.53,-6.1415 5.1,-6.1415 3.57,0 5.1,3.1538 5.1,6.1415 0,3.0708 -1.53,6.2245 -5.1,6.2245 z m -18.3591,2.5728 3.9098,0 0,-8.2993 c 0,-3.8177 2.1253,-5.9756 4.8443,-5.9756 0.595,0 1.105,0.083 1.7,0.166 l 0,-3.7347 c -0.34,0 -0.595,-0.083 -1.53,-0.083 -2.464,0 -4.7594,1.9919 -5.2693,3.8177 l 0,-3.4027 -3.7398,0 0,17.5116 0.085,0 z m -12.3244,-14.6068 2.9749,0 0,10.2912 c 0.085,2.9048 0.8499,4.4816 4.9297,4.4816 0.85,0 1.6999,-0.166 2.5499,-0.166 l 0,-3.0707 c -0.595,0.166 -1.105,0.166 -1.6999,0.166 -1.7849,0 -1.8699,-0.83 -1.8699,-2.4068 l 0,-9.2953 3.5698,0 0,-2.9048 -3.5698,0 0,-5.2286 -3.9098,0 0,5.2286 -2.9749,0 0,2.9048 z m -26.6035,14.6068 3.9098,0 0,-10.3742 c 0,-2.9047 1.8699,-4.5646 3.9098,-4.5646 2.3798,0 3.1448,1.2449 3.1448,3.6517 l 0,11.2041 3.9098,0 0,-10.2082 c 0,-2.9047 1.1049,-4.6476 3.8248,-4.6476 3.0598,0 3.2298,1.9089 3.2298,4.7306 l 0,10.2082 3.9098,0 0,-12.117 c 0,-4.2327 -2.2099,-5.8926 -6.0347,-5.8926 -2.6348,0 -4.3348,1.079 -5.6097,2.9048 -0.7649,-1.9918 -2.8048,-2.9048 -5.0147,-2.9048 -2.8049,0 -4.3348,1.1619 -5.5247,2.9048 l -0.085,0 0,-2.4068 -3.7398,0 0,17.5116 0.17,0 z m -10.2844,0.415 c 5.7796,0 9.0095,-3.8177 9.0095,-9.2123 0,-5.3116 -3.3148,-9.2123 -9.0095,-9.2123 -5.7797,0 -9.0095,3.8177 -9.0095,9.2123 0,5.3946 3.3148,9.2123 9.0095,9.2123 z m 0,-2.9878 c -3.5698,0 -5.0998,-3.1537 -5.0998,-6.2245 0,-2.9877 1.53,-6.1415 5.0998,-6.1415 3.5698,0 5.0997,3.1538 5.0997,6.1415 0,3.0708 -1.5299,6.2245 -5.0997,6.2245 z M 34.5931,30.9749 c -0.5099,-5.2286 -4.9297,-8.2163 -10.5394,-8.2993 -7.3946,0 -11.8144,5.7265 -11.8144,12.698 0,6.8884 4.4198,12.698 11.8144,12.698 6.0347,0 10.1994,-3.9837 10.5394,-9.7932 l -4.2497,0 c -0.34,3.4857 -2.4649,6.3075 -6.2897,6.3075 -5.2697,0 -7.4796,-4.5647 -7.4796,-9.2123 0,-4.6477 2.2099,-9.2123 7.4796,-9.2123 3.5698,0 5.4397,1.9918 6.2047,4.8136 l 4.3347,0 z" />
  </g>
  <defs
     id="defs32">
    <clipPath
       id="clip0">
      <rect
         style="fill:#ffffff"
         y="0"
         x="0"
         id="rect35"
         height="76"
         width="288" />
    </clipPath>
  </defs>
</svg>
